<svg xmlns="http://www.w3.org/2000/svg" xmlns:xlink="http://www.w3.org/1999/xlink" viewBox="0 0 535 604"><defs><style>.a,.h{fill:#fff;}.b{fill:url(#a);}.c{fill:url(#b);}.d{fill:url(#c);}.e{fill:url(#d);}.f{fill:url(#e);}.g{fill:url(#f);}.h{opacity:0.79;}</style><linearGradient id="a" x1="187.21" y1="264.42" x2="322.5" y2="264.42" gradientUnits="userSpaceOnUse"><stop offset="0" stop-color="#fff" stop-opacity="0.5"/><stop offset="1" stop-color="#fff" stop-opacity="0.5"/></linearGradient><linearGradient id="b" x1="373.19" y1="337.75" x2="429.22" y2="337.75" gradientTransform="translate(36.77 -119.22)" xlink:href="#a"/><linearGradient id="c" x1="114.79" y1="251.33" x2="170.81" y2="251.33" xlink:href="#a"/><linearGradient id="d" x1="187.21" y1="490.47" x2="243.24" y2="490.47" xlink:href="#a"/><linearGradient id="e" x1="267.84" y1="491.83" x2="323.86" y2="491.83" xlink:href="#a"/><linearGradient id="f" x1="0" y1="370.33" x2="124.35" y2="370.33" xlink:href="#a"/></defs><title>mcserverhosting-icon-transparent</title><rect class="a" x="187.21" width="136.65" height="121.62"/><rect class="b" x="187.21" y="155.78" width="135.29" height="217.28"/><rect class="c" x="409.95" y="109.32" width="56.03" height="218.42" transform="translate(-26.25 373.7) rotate(-45)"/><rect class="d" x="114.79" y="142.12" width="56.03" height="218.42"/><rect class="e" x="187.21" y="381.26" width="56.03" height="218.42"/><rect class="f" x="267.84" y="382.62" width="56.03" height="218.42"/><rect class="g" y="136.65" width="124.35" height="467.35"/><path class="a" d="M234.73,370.43,177.65,314.3,393.56,136.65l123.79.35-233,233.21A35.21,35.21,0,0,1,234.73,370.43Z"/><path class="a" d="M340.26,314.3l-57,57a33.49,33.49,0,0,1-47.3.05L.56,137l123.79-.35Z"/><rect class="h" x="393.56" y="136.65" width="124.35" height="467.35"/></svg>